<?xml version="1.0" encoding="UTF-8"?>
<svg version="1.1" xmlns="http://www.w3.org/2000/svg" width="204" height="192">
<path d="M0 0 C67.32 0 134.64 0 204 0 C204 63.36 204 126.72 204 192 C136.68 192 69.36 192 0 192 C0 128.64 0 65.28 0 0 Z " fill="#FEFEFE" transform="translate(0,0)"/>
<path d="M0 0 C5.28248475 4.47636051 5.28248475 4.47636051 6.55078125 8.28125 C-1.55086209 8.91667301 -1.55086209 8.91667301 -5.01171875 6.46875 C-6.21828125 5.3859375 -6.21828125 5.3859375 -7.44921875 4.28125 C-13.78726612 0.92250649 -20.1438995 0.08604197 -27.06640625 2.0078125 C-34.34134568 4.66305745 -38.81186017 8.35294795 -42.44921875 15.28125 C-43.14744492 16.93494357 -43.8242048 18.59852014 -44.44921875 20.28125 C-44.77921875 20.28125 -45.10921875 20.28125 -45.44921875 20.28125 C-44.95318751 12.51009392 -41.85646444 6.1289385 -36.01171875 0.90625 C-25.07464584 -7.6398178 -11.44071146 -8.02856944 0 0 Z " fill="#707175" transform="translate(94.44921875,69.71875)"/>
<path d="M0 0 C0.96308653 3.60025615 0.95211646 6.38722154 0 10 C-3.45669609 15.22342549 -8.44673042 19.38319569 -13 23.625 C-14.25487659 24.82966857 -15.5075078 26.03668075 -16.7578125 27.24609375 C-19.81324108 30.19180241 -22.89757955 33.10385751 -26 36 C-29.91498311 32.2488598 -29.91498311 32.2488598 -30 29 C-28.3046875 26.81640625 -28.3046875 26.81640625 -25.875 24.5625 C-24.69550781 23.45068359 -24.69550781 23.45068359 -23.4921875 22.31640625 C-22.66976562 21.55199219 -21.84734375 20.78757812 -21 20 C-18.72419148 17.74717944 -16.46965586 15.47421999 -14.21630859 13.19897461 C-12.22909252 11.19360249 -10.23959468 9.19051199 -8.25 7.1875 C-7.56550781 6.49462891 -6.88101563 5.80175781 -6.17578125 5.08789062 C-5.52480469 4.43369141 -4.87382813 3.77949219 -4.203125 3.10546875 C-3.61176758 2.50887451 -3.02041016 1.91228027 -2.41113281 1.29760742 C-1 0 -1 0 0 0 Z " fill="#1D70B8" transform="translate(73,80)"/>
<path d="M0 0 C1.32 0 2.64 0 4 0 C4 8.91 4 17.82 4 27 C2.68 27 1.36 27 0 27 C0 23.37 0 19.74 0 16 C-4.62 16 -9.24 16 -14 16 C-14 19.63 -14 23.26 -14 27 C-15.32 27 -16.64 27 -18 27 C-18 18.42 -18 9.84 -18 1 C-16.68 1 -15.36 1 -14 1 C-14 4.63 -14 8.26 -14 12 C-9.38 12 -4.76 12 0 12 C0 8.04 0 4.08 0 0 Z " fill="#2B77BA" transform="translate(160,82)"/>
<path d="M0 0 C-2.72455269 1.40225285 -5.47386799 2.60042966 -8.3125 3.75 C-16.09577395 7.26461467 -20.70189001 11.64178042 -24.078125 19.578125 C-25.44229305 24.64173181 -25.61169574 29.66445685 -25.63623047 34.89355469 C-25.70722174 40.66502031 -25.70722174 40.66502031 -27.52099609 42.74023438 C-28.00906738 43.15595703 -28.49713867 43.57167969 -29 44 C-29.99 43.67 -30.98 43.34 -32 43 C-35.21135376 34.43638997 -32.54404091 24.98237251 -29 17 C-24.83704652 9.57248117 -18.28784252 3.70035135 -10.375 0.5625 C-6.85043957 -0.02492674 -3.56677465 -0.14558264 0 0 Z " fill="#2373B9" transform="translate(73,62)"/>
<path d="M0 0 C0.66 0 1.32 0 2 0 C2.8724309 4.7843396 3.0343666 8.48644493 0.21875 12.60644531 C-2.25745553 15.24046822 -4.82299552 17.69551371 -7.5 20.125 C-8.40621094 20.98609375 -9.31242187 21.8471875 -10.24609375 22.734375 C-12.47646795 24.84736108 -14.72664533 26.93348751 -17 29 C-20.36748512 27.48052501 -21.60840337 26.47899158 -23 23 C-22.0925 22.278125 -21.185 21.55625 -20.25 20.8125 C-17.42071949 18.46028787 -15.25775015 15.913226 -13 13 C-11.3545622 11.31237149 -9.68711423 9.6459651 -8 8 C-7.113125 7.071875 -6.22625 6.14375 -5.3125 5.1875 C-3 3 -3 3 -1 3 C-0.67 2.01 -0.34 1.02 0 0 Z " fill="#2172B9" transform="translate(71,94)"/>
<path d="M0 0 C3.0625 1.5 3.0625 1.5 5 3 C4.67 3.99 4.34 4.98 4 6 C3.4328125 5.84273438 2.865625 5.68546875 2.28125 5.5234375 C-1.51114109 4.65326557 -5.14523801 4.39172563 -9 5 C-11.7195874 7.1226048 -12.75414996 8.55634569 -13.3359375 11.97265625 C-13.48714343 15.08400913 -13.2852763 17.47882215 -11.78125 20.2265625 C-10.13125975 22.20466476 -10.13125975 22.20466476 -7.66015625 22.42578125 C-6.37431641 22.36970703 -6.37431641 22.36970703 -5.0625 22.3125 C-4.20785156 22.28800781 -3.35320312 22.26351562 -2.47265625 22.23828125 C-0.21545879 22.02076301 1.8234215 21.62115813 4 21 C4 22.32 4 23.64 4 25 C-0.46211142 27.97474094 -4.76734874 27.49725487 -10 27 C-13.125 25.75 -13.125 25.75 -15 24 C-15.8125 21.8125 -15.8125 21.8125 -16 20 C-16.66 20 -17.32 20 -18 20 C-18.86067208 8.18010346 -18.86067208 8.18010346 -15.75 4.375 C-10.68849826 0.00370304 -6.57598713 -0.80737209 0 0 Z " fill="#2B78BA" transform="translate(130,82)"/>
<path d="M0 0 C3.0625 1.5 3.0625 1.5 5 3 C4.67 3.99 4.34 4.98 4 6 C3.4328125 5.84273438 2.865625 5.68546875 2.28125 5.5234375 C-1.51114109 4.65326557 -5.14523801 4.39172563 -9 5 C-11.71195062 7.11664438 -12.70009046 8.56966219 -13.40625 11.9375 C-13.70250095 15.84801256 -13.19719959 17.68829742 -11.0625 21.0625 C-7.27568886 23.45823766 -5.37451573 23.20939 -1.0859375 22.4921875 C1.17408767 21.99192196 1.17408767 21.99192196 4 21 C4.33 22.32 4.66 23.64 5 25 C0.21007518 27.82887325 -4.59156855 27.49825074 -10 27 C-13.90816052 25.61585982 -14.72861608 24.46790331 -16.8125 20.875 C-18.36635973 16.62658582 -18.87538068 12.45795717 -18 8 C-14.02338446 0.58329642 -7.81879137 -0.95995837 0 0 Z " fill="#2575B9" transform="translate(100,82)"/>
<path d="M0 0 C2.125 0.375 2.125 0.375 4 1 C-2.01723112 8.57795044 -8.20581959 14.23383632 -18 16 C-29.97654941 16.68230039 -29.97654941 16.68230039 -34 14 C-32.3554202 11.65060028 -31.43099315 10.42820848 -29 9 C-25.98928795 8.74618997 -23.0878606 8.88177241 -20.0703125 9.0078125 C-12.29732305 8.9880339 -5.43430429 5.43430429 0 0 Z " fill="#1D70B8" transform="translate(99,114)"/>
<path d="M0 0 C0.67482595 3.52409108 0.80676563 6.48819667 0 10 C-2.93637863 13.81214067 -6.32114956 16.91239338 -10 20 C-11.98 19.34 -13.96 18.68 -16 18 C-16 14 -16 14 -14.74658203 12.26074219 C-13.88589111 11.41237793 -13.88589111 11.41237793 -13.0078125 10.546875 C-12.07388672 9.61875 -12.07388672 9.61875 -11.12109375 8.671875 C-10.46238281 8.03765625 -9.80367187 7.4034375 -9.125 6.75 C-8.47402344 6.1003125 -7.82304688 5.450625 -7.15234375 4.78125 C-2.28069196 0 -2.28069196 0 0 0 Z " fill="#2574BA" transform="translate(73,108)"/>
<path d="M0 0 C5.44693314 -0.09688221 10.63904667 -0.12862175 16 1 C16 1.99 16 2.98 16 4 C15.28714844 3.97679688 14.57429688 3.95359375 13.83984375 3.9296875 C5.02546336 3.76360227 -2.49598016 5.18729529 -10 10 C-17.26799625 17.26799625 -19.4149639 23.93190519 -19.7265625 34.046875 C-19.9913416 36.90648929 -20.52651001 38.57168849 -22 41 C-22.77220083 28.93078697 -22.46382222 19.43472555 -14.1015625 9.81640625 C-9.83150983 5.75732456 -5.60506309 3.70153701 0 2 C0 1.34 0 0.68 0 0 Z " fill="#D8E1E7" transform="translate(69,61)"/>
<path d="M0 0 C1.32 0 2.64 0 4 0 C4 3.96 4 7.92 4 12 C8.62 12 13.24 12 18 12 C18 12.66 18 13.32 18 14 C13.38 14 8.76 14 4 14 C4 17.96 4 21.92 4 26 C2.68 26 1.36 26 0 26 C0 17.42 0 8.84 0 0 Z " fill="#1B6FB8" transform="translate(142,83)"/>
<path d="M0 0 C1.65 0 3.3 0 5 0 C5.495 1.485 5.495 1.485 6 3 C-0.96953363 8.94460222 -6.91966488 11.24103622 -16 10.8125 C-20.16546112 10.75607134 -21.61888898 10.76547014 -25.25 13 C-25.8275 13.66 -26.405 14.32 -27 15 C-27 12 -27 12 -25.46875 10.17578125 C-24.8190625 9.56089844 -24.169375 8.94601563 -23.5 8.3125 C-22.8503125 7.68988281 -22.200625 7.06726563 -21.53125 6.42578125 C-20.77328125 5.72001953 -20.77328125 5.72001953 -20 5 C-19.67 5.66 -19.34 6.32 -19 7 C-11.91045996 7.65643889 -6.98599234 5.85063835 -1 2 C-0.67 1.34 -0.34 0.68 0 0 Z " fill="#DFE7EC" transform="translate(92,113)"/>
<path d="M0 0 C0.33 0.66 0.66 1.32 1 2 C1.66 2 2.32 2 3 2 C3 5.63 3 9.26 3 13 C2.67 13 2.34 13 2 13 C2 9.7 2 6.4 2 3 C-3.79430633 7.86666561 -3.79430633 7.86666561 -8.875 13.4375 C-9.57625 14.283125 -10.2775 15.12875 -11 16 C-11.66 16 -12.32 16 -13 16 C-13.33 16.99 -13.66 17.98 -14 19 C-14.66 19 -15.32 19 -16 19 C-16.268125 19.61875 -16.53625 20.2375 -16.8125 20.875 C-18 23 -18 23 -21 25 C-21.66 24.34 -22.32 23.68 -23 23 C-15.41 15.41 -7.82 7.82 0 0 Z " fill="#CFE0EA" transform="translate(71,91)"/>
<path d="M0 0 C3.0625 1.5 3.0625 1.5 5 3 C4.67 3.99 4.34 4.98 4 6 C3.43410156 5.83886719 2.86820313 5.67773438 2.28515625 5.51171875 C-0.06192223 4.98613365 -2.1601634 4.83282434 -4.5625 4.8125 C-5.32691406 4.79832031 -6.09132813 4.78414063 -6.87890625 4.76953125 C-9.30153503 4.8676625 -9.30153503 4.8676625 -12 7 C-13.65549531 7.38499891 -15.3222433 7.72793135 -17 8 C-14.27673006 0.37484416 -7.22839864 -1.15601228 0 0 Z " fill="#2575B9" transform="translate(100,82)"/>
<path d="M0 0 C0.99 0.33 1.98 0.66 3 1 C3 4.63 3 8.26 3 12 C2.67 12 2.34 12 2 12 C2 9.03 2 6.06 2 3 C-2.27349961 6.63702095 -6.45992168 10.35421019 -10.5 14.25 C-11.1703125 14.89453125 -11.840625 15.5390625 -12.53125 16.203125 C-14.31643554 18.00033313 -14.31643554 18.00033313 -14 21 C-14.66 21 -15.32 21 -16 21 C-16.72631836 19.25683594 -16.72631836 19.25683594 -17 17 C-15.55297852 14.98535156 -15.55297852 14.98535156 -13.37890625 12.890625 C-12.60869141 12.13652344 -11.83847656 11.38242188 -11.04492188 10.60546875 C-10.22572266 9.82816406 -9.40652344 9.05085938 -8.5625 8.25 C-7.74716797 7.45722656 -6.93183594 6.66445312 -6.09179688 5.84765625 C-4.07189608 3.88681688 -2.04127872 1.9385351 0 0 Z " fill="#D3E1EB" transform="translate(71,105)"/>
<path d="M0 0 C0.66 0.33 1.32 0.66 2 1 C1.65295981 4.12336172 0.96277214 5.03526849 -1.375 7.25 C-4.66177256 10.69328554 -5.55188564 13.50322384 -7 18 C-7.33 18 -7.66 18 -8 18 C-7.55851518 11.08340452 -4.95199853 4.95199853 0 0 Z " fill="#7A7A7D" transform="translate(57,72)"/>
<path d="M0 0 C-2.83909202 1.44547379 -5.70887165 2.7799887 -8.625 4.0625 C-10.77271047 5.00792072 -12.90114425 5.95057213 -15 7 C-15.99 6.34 -16.98 5.68 -18 5 C-11.48784873 1.11775597 -7.70951873 -0.14825998 0 0 Z " fill="#4687BF" transform="translate(73,62)"/>
<path d="M0 0 C2.0625 0.4375 2.0625 0.4375 4 1 C-7.31684891 8.35735586 -7.31684891 8.35735586 -15 8 C-12.8222672 6.90859545 -10.64179647 5.8233743 -8.45703125 4.74609375 C-7.58433594 4.31425781 -6.71164063 3.88242188 -5.8125 3.4375 C-4.93207031 3.00308594 -4.05164063 2.56867188 -3.14453125 2.12109375 C-1.07630493 1.17598986 -1.07630493 1.17598986 0 0 Z " fill="#7B7A7D" transform="translate(92,114)"/>
<path d="M0 0 C1.50433594 0.01353516 1.50433594 0.01353516 3.0390625 0.02734375 C3.80992187 0.03894531 4.58078125 0.05054687 5.375 0.0625 C5.705 0.7225 6.035 1.3825 6.375 2.0625 C3.73041621 3.38479189 1.69738699 3.15927194 -1.25 3.125 C-2.25289063 3.11597656 -3.25578125 3.10695313 -4.2890625 3.09765625 C-5.05992188 3.08605469 -5.83078125 3.07445313 -6.625 3.0625 C-6.955 2.4025 -7.285 1.7425 -7.625 1.0625 C-4.98041621 -0.25979189 -2.94738699 -0.03427194 0 0 Z " fill="#166DB6" transform="translate(126.625,105.9375)"/>
<path d="M0 0 C0.33 0.99 0.66 1.98 1 3 C0.3503125 3.59748047 0.3503125 3.59748047 -0.3125 4.20703125 C-0.869375 4.73683594 -1.42625 5.26664062 -2 5.8125 C-2.556875 6.33457031 -3.11375 6.85664062 -3.6875 7.39453125 C-5.316465 9.04148967 -5.316465 9.04148967 -5 12 C-5.66 12 -6.32 12 -7 12 C-7.74609375 10.265625 -7.74609375 10.265625 -8 8 C-6.34765625 5.859375 -6.34765625 5.859375 -4.0625 3.75 C-3.31097656 3.04359375 -2.55945312 2.3371875 -1.78515625 1.609375 C-1.19605469 1.07828125 -0.60695313 0.5471875 0 0 Z " fill="#E1EBF0" transform="translate(62,114)"/>
<path d="M0 0 C0.99 0.33 1.98 0.66 3 1 C3.33 4.3 3.66 7.6 4 11 C3.01 11.33 2.02 11.66 1 12 C0 11 0 11 -0.09765625 8.49609375 C-0.08605469 7.48675781 -0.07445313 6.47742188 -0.0625 5.4375 C-0.05347656 4.42558594 -0.04445313 3.41367188 -0.03515625 2.37109375 C-0.02355469 1.58863281 -0.01195313 0.80617188 0 0 Z " fill="#0B67B4" transform="translate(113,91)"/>
<path d="M0 0 C-0.33 0.99 -0.66 1.98 -1 3 C-4.96 2.67 -8.92 2.34 -13 2 C-13 1.67 -13 1.34 -13 1 C-11.39796533 0.63631108 -9.79325797 0.28438048 -8.1875 -0.0625 C-7.29417969 -0.25972656 -6.40085938 -0.45695312 -5.48046875 -0.66015625 C-3 -1 -3 -1 0 0 Z M-8 3 C-6 4 -6 4 -6 4 Z " fill="#4587BF" transform="translate(135,104)"/>
<path d="M0 0 C0.33 0.66 0.66 1.32 1 2 C1.66 2 2.32 2 3 2 C3 5.63 3 9.26 3 13 C2.67 13 2.34 13 2 13 C2 9.7 2 6.4 2 3 C0.68 3.99 -0.64 4.98 -2 6 C-2.66 5.34 -3.32 4.68 -4 4 C-2.68 2.68 -1.36 1.36 0 0 Z " fill="#BBD0E1" transform="translate(71,91)"/>
<path d="M0 0 C0.33 1.32 0.66 2.64 1 4 C-0.98 4.66 -2.96 5.32 -5 6 C-5.33 4.68 -5.66 3.36 -6 2 C-2.25 0 -2.25 0 0 0 Z " fill="#2876B8" transform="translate(104,103)"/>
<path d="M0 0 C1.65 0 3.3 0 5 0 C5.33 0.99 5.66 1.98 6 3 C4.35 4.32 2.7 5.64 1 7 C0.01 6.34 -0.98 5.68 -2 5 C-0.35 4.01 1.3 3.02 3 2 C2.01 1.34 1.02 0.68 0 0 Z " fill="#DADFE3" transform="translate(92,113)"/>
<path d="M0 0 C0.66 0 1.32 0 2 0 C2.33 1.32 2.66 2.64 3 4 C0.69 4.66 -1.62 5.32 -4 6 C-2.84826645 3.53199953 -1.95216435 1.95216435 0 0 Z " fill="#3980BD" transform="translate(87,84)"/>
<path d="M0 0 C1.98 0 3.96 0 6 0 C6 0.99 6 1.98 6 3 C3.69 3 1.38 3 -1 3 C-0.67 2.01 -0.34 1.02 0 0 Z " fill="#0967B5" transform="translate(93,106)"/>
<path d="M0 0 C-0.66 2.31 -1.32 4.62 -2 7 C-2.99 6.67 -3.98 6.34 -5 6 C-4.625 3.5625 -4.625 3.5625 -4 1 C-2 0 -2 0 0 0 Z " fill="#126BB5" transform="translate(88,88)"/>
<path d="M0 0 C0.99 0.33 1.98 0.66 3 1 C-0.465 3.97 -0.465 3.97 -4 7 C-3.04065919 3.16263678 -2.76390737 2.40339772 0 0 Z " fill="#E8F0F1" transform="translate(66,96)"/>
</svg>
